<?xml version="1.0" encoding="UTF-8" standalone="no"?>
<!-- Created with Inkscape (http://www.inkscape.org/) -->

<svg
   width="310"
   height="150"
   viewBox="0 0 82.020835 39.687499"
   version="1.1"
   id="svg1"
   inkscape:export-filename="C:\Users\Bob\Documents\SITL Launcher V2\Packaging\Assets\StoreLogo.png"
   inkscape:export-xdpi="4.6875"
   inkscape:export-ydpi="4.6875"
   sodipodi:docname="logo-wide.svg"
   inkscape:version="1.4 (86a8ad7, 2024-10-11)"
   xml:space="preserve"
   xmlns:inkscape="http://www.inkscape.org/namespaces/inkscape"
   xmlns:sodipodi="http://sodipodi.sourceforge.net/DTD/sodipodi-0.dtd"
   xmlns:xlink="http://www.w3.org/1999/xlink"
   xmlns="http://www.w3.org/2000/svg"
   xmlns:svg="http://www.w3.org/2000/svg"><sodipodi:namedview
     id="namedview1"
     pagecolor="#ffffff"
     bordercolor="#000000"
     borderopacity="0.25"
     inkscape:showpageshadow="2"
     inkscape:pageopacity="0.0"
     inkscape:pagecheckerboard="0"
     inkscape:deskcolor="#d1d1d1"
     inkscape:document-units="mm"
     showguides="false"
     inkscape:zoom="1.0900447"
     inkscape:cx="145.86558"
     inkscape:cy="155.49821"
     inkscape:window-width="1920"
     inkscape:window-height="1009"
     inkscape:window-x="1072"
     inkscape:window-y="379"
     inkscape:window-maximized="1"
     inkscape:current-layer="layer1"><sodipodi:guide
       position="48.969002,246.44824"
       orientation="1,0"
       id="guide1"
       inkscape:locked="false" /><sodipodi:guide
       position="49.076579,270.93334"
       orientation="0,-1"
       id="guide2"
       inkscape:locked="false" /></sodipodi:namedview><defs
     id="defs1"><clipPath
       clipPathUnits="userSpaceOnUse"
       id="clipPath18"><path
         d="M 0,566.93 H 566.93 V 0 H 0 Z"
         transform="translate(-270.15871,-318.94381)"
         id="path18" /></clipPath><clipPath
       clipPathUnits="userSpaceOnUse"
       id="clipPath20"><path
         d="M 0,566.93 H 566.93 V 0 H 0 Z"
         transform="translate(-332.14061,-369.75391)"
         id="path20" /></clipPath><clipPath
       clipPathUnits="userSpaceOnUse"
       id="clipPath22"><path
         d="M 0,566.93 H 566.93 V 0 H 0 Z"
         transform="translate(-340.80271,-354.72121)"
         id="path22" /></clipPath><clipPath
       clipPathUnits="userSpaceOnUse"
       id="clipPath24"><path
         d="M 0,566.93 H 566.93 V 0 H 0 Z"
         transform="translate(-346.09771,-326.55421)"
         id="path24" /></clipPath><clipPath
       clipPathUnits="userSpaceOnUse"
       id="clipPath26"><path
         d="M 0,566.93 H 566.93 V 0 H 0 Z"
         transform="translate(-343.51761,-309.31151)"
         id="path26" /></clipPath><clipPath
       clipPathUnits="userSpaceOnUse"
       id="clipPath28"><path
         d="M 0,566.93 H 566.93 V 0 H 0 Z"
         transform="translate(-327.27341,-280.73441)"
         id="path28" /></clipPath><clipPath
       clipPathUnits="userSpaceOnUse"
       id="clipPath30"><path
         d="M 0,566.93 H 566.93 V 0 H 0 Z"
         transform="translate(-284.35941,-294.3096)"
         id="path30" /></clipPath><clipPath
       clipPathUnits="userSpaceOnUse"
       id="clipPath32"><path
         d="M 0,566.93 H 566.93 V 0 H 0 Z"
         transform="translate(-294.0703,-261.20511)"
         id="path32" /></clipPath><clipPath
       clipPathUnits="userSpaceOnUse"
       id="clipPath34"><path
         d="M 0,566.93 H 566.93 V 0 H 0 Z"
         transform="translate(-266.7295,-266.47271)"
         id="path34" /></clipPath><clipPath
       clipPathUnits="userSpaceOnUse"
       id="clipPath36"><path
         d="M 0,566.93 H 566.93 V 0 H 0 Z"
         transform="translate(-321.83791,-297.08501)"
         id="path36" /></clipPath><clipPath
       clipPathUnits="userSpaceOnUse"
       id="clipPath38"><path
         d="M 0,566.93 H 566.93 V 0 H 0 Z"
         transform="translate(-301.64841,-321.60741)"
         id="path38" /></clipPath><clipPath
       clipPathUnits="userSpaceOnUse"
       id="clipPath18-1"><path
         d="M 0,566.93 H 566.93 V 0 H 0 Z"
         transform="translate(-270.15871,-318.94381)"
         id="path18-3" /></clipPath><clipPath
       clipPathUnits="userSpaceOnUse"
       id="clipPath20-8"><path
         d="M 0,566.93 H 566.93 V 0 H 0 Z"
         transform="translate(-332.14061,-369.75391)"
         id="path20-9" /></clipPath><clipPath
       clipPathUnits="userSpaceOnUse"
       id="clipPath22-3"><path
         d="M 0,566.93 H 566.93 V 0 H 0 Z"
         transform="translate(-340.80271,-354.72121)"
         id="path22-4" /></clipPath><clipPath
       clipPathUnits="userSpaceOnUse"
       id="clipPath24-4"><path
         d="M 0,566.93 H 566.93 V 0 H 0 Z"
         transform="translate(-346.09771,-326.55421)"
         id="path24-6" /></clipPath><clipPath
       clipPathUnits="userSpaceOnUse"
       id="clipPath26-0"><path
         d="M 0,566.93 H 566.93 V 0 H 0 Z"
         transform="translate(-343.51761,-309.31151)"
         id="path26-6" /></clipPath><clipPath
       clipPathUnits="userSpaceOnUse"
       id="clipPath28-6"><path
         d="M 0,566.93 H 566.93 V 0 H 0 Z"
         transform="translate(-327.27341,-280.73441)"
         id="path28-1" /></clipPath><clipPath
       clipPathUnits="userSpaceOnUse"
       id="clipPath30-8"><path
         d="M 0,566.93 H 566.93 V 0 H 0 Z"
         transform="translate(-284.35941,-294.3096)"
         id="path30-4" /></clipPath><clipPath
       clipPathUnits="userSpaceOnUse"
       id="clipPath32-9"><path
         d="M 0,566.93 H 566.93 V 0 H 0 Z"
         transform="translate(-294.0703,-261.20511)"
         id="path32-6" /></clipPath><clipPath
       clipPathUnits="userSpaceOnUse"
       id="clipPath34-3"><path
         d="M 0,566.93 H 566.93 V 0 H 0 Z"
         transform="translate(-266.7295,-266.47271)"
         id="path34-7" /></clipPath><clipPath
       clipPathUnits="userSpaceOnUse"
       id="clipPath36-8"><path
         d="M 0,566.93 H 566.93 V 0 H 0 Z"
         transform="translate(-321.83791,-297.08501)"
         id="path36-8" /></clipPath><clipPath
       clipPathUnits="userSpaceOnUse"
       id="clipPath38-2"><path
         d="M 0,566.93 H 566.93 V 0 H 0 Z"
         transform="translate(-301.64841,-321.60741)"
         id="path38-9" /></clipPath><clipPath
       clipPathUnits="userSpaceOnUse"
       id="clipPath18-7"><path
         d="M 0,566.93 H 566.93 V 0 H 0 Z"
         transform="translate(-270.15871,-318.94381)"
         id="path18-7" /></clipPath><clipPath
       clipPathUnits="userSpaceOnUse"
       id="clipPath20-3"><path
         d="M 0,566.93 H 566.93 V 0 H 0 Z"
         transform="translate(-332.14061,-369.75391)"
         id="path20-3" /></clipPath><clipPath
       clipPathUnits="userSpaceOnUse"
       id="clipPath22-5"><path
         d="M 0,566.93 H 566.93 V 0 H 0 Z"
         transform="translate(-340.80271,-354.72121)"
         id="path22-9" /></clipPath><clipPath
       clipPathUnits="userSpaceOnUse"
       id="clipPath24-9"><path
         d="M 0,566.93 H 566.93 V 0 H 0 Z"
         transform="translate(-346.09771,-326.55421)"
         id="path24-8" /></clipPath><clipPath
       clipPathUnits="userSpaceOnUse"
       id="clipPath26-1"><path
         d="M 0,566.93 H 566.93 V 0 H 0 Z"
         transform="translate(-343.51761,-309.31151)"
         id="path26-8" /></clipPath><clipPath
       clipPathUnits="userSpaceOnUse"
       id="clipPath28-2"><path
         d="M 0,566.93 H 566.93 V 0 H 0 Z"
         transform="translate(-327.27341,-280.73441)"
         id="path28-6" /></clipPath><clipPath
       clipPathUnits="userSpaceOnUse"
       id="clipPath30-6"><path
         d="M 0,566.93 H 566.93 V 0 H 0 Z"
         transform="translate(-284.35941,-294.3096)"
         id="path30-0" /></clipPath><clipPath
       clipPathUnits="userSpaceOnUse"
       id="clipPath32-3"><path
         d="M 0,566.93 H 566.93 V 0 H 0 Z"
         transform="translate(-294.0703,-261.20511)"
         id="path32-8" /></clipPath><clipPath
       clipPathUnits="userSpaceOnUse"
       id="clipPath34-0"><path
         d="M 0,566.93 H 566.93 V 0 H 0 Z"
         transform="translate(-266.7295,-266.47271)"
         id="path34-1" /></clipPath><clipPath
       clipPathUnits="userSpaceOnUse"
       id="clipPath36-2"><path
         d="M 0,566.93 H 566.93 V 0 H 0 Z"
         transform="translate(-321.83791,-297.08501)"
         id="path36-5" /></clipPath><clipPath
       clipPathUnits="userSpaceOnUse"
       id="clipPath38-0"><path
         d="M 0,566.93 H 566.93 V 0 H 0 Z"
         transform="translate(-301.64841,-321.60741)"
         id="path38-94" /></clipPath></defs><g
     inkscape:label="Layer 1"
     inkscape:groupmode="layer"
     id="layer1"><image
       preserveAspectRatio="none"
       inkscape:svg-dpi="96"
       width="39.6875"
       height="39.6875"
       xlink:href="logo.svg"
       id="image1"
       x="21.166666"
       y="-3.7599551e-15" /></g></svg>
